<svg xmlns="http://www.w3.org/2000/svg" xmlns:xlink="http://www.w3.org/1999/xlink" width="500" zoomAndPan="magnify" viewBox="0 0 375 374.999991" height="500" preserveAspectRatio="xMidYMid meet" version="1.0"><defs><filter x="0%" y="0%" width="100%" height="100%" id="2cdc3d888a"><feColorMatrix values="0 0 0 0 1 0 0 0 0 1 0 0 0 0 1 0 0 0 1 0" color-interpolation-filters="sRGB"/></filter><mask id="6869e4168e"><g filter="url(#2cdc3d888a)"><rect x="-37.5" width="450" fill="#000000" y="-37.499999" height="449.999989" fill-opacity="0.25"/></g></mask><clipPath id="0f8e655fbb"><path d="M 9 60 L 274 60 L 274 264 L 9 264 Z M 9 60 " clip-rule="nonzero"/></clipPath><clipPath id="60d4149564"><path d="M 324.121094 218.269531 L 49.96875 330.542969 L -47.523438 92.480469 L 226.625 -19.792969 Z M 324.121094 218.269531 " clip-rule="nonzero"/></clipPath><clipPath id="22e4d4cf0f"><path d="M 324.121094 218.269531 L 49.96875 330.542969 L -47.523438 92.480469 L 226.625 -19.792969 Z M 324.121094 218.269531 " clip-rule="nonzero"/></clipPath><clipPath id="5d57f97f4c"><rect x="0" width="291" y="0" height="306"/></clipPath><clipPath id="1e4818d56d"><path d="M 35 39 L 361 39 L 361 364.65625 L 35 364.65625 Z M 35 39 " clip-rule="nonzero"/></clipPath><clipPath id="97c76ffb13"><path d="M 209 11.40625 L 288 11.40625 L 288 141 L 209 141 Z M 209 11.40625 " clip-rule="nonzero"/></clipPath></defs><g mask="url(#6869e4168e)"><g transform="matrix(1, 0, 0, 1, 0, 56)"><g clip-path="url(#5d57f97f4c)"><g clip-path="url(#0f8e655fbb)"><g clip-path="url(#60d4149564)"><g clip-path="url(#22e4d4cf0f)"><path fill="#abc6f5" d="M 107.75 256.40625 C 57.667969 238.292969 -36.542969 117.8125 35.144531 70.570312 C 83.617188 38.597656 91.3125 89.742188 157.746094 129.761719 C 179.753906 142.996094 287.445312 129.21875 271.59375 197.441406 C 262.1875 237.867188 173.242188 280.058594 107.75 256.40625 Z M 107.75 256.40625 " fill-opacity="1" fill-rule="nonzero"/></g></g></g></g></g></g><g clip-path="url(#1e4818d56d)"><path fill="#09285c" d="M 295.332031 71.460938 C 295.121094 71.292969 294.882812 71.175781 294.625 71.101562 C 294.363281 71.03125 294.101562 71.011719 293.832031 71.046875 C 293.5625 71.082031 293.3125 71.167969 293.082031 71.304688 C 292.847656 71.441406 292.652344 71.621094 292.488281 71.835938 C 292.328125 72.054688 292.214844 72.292969 292.152344 72.554688 C 292.085938 72.816406 292.078125 73.082031 292.121094 73.347656 C 292.160156 73.613281 292.253906 73.863281 292.398438 74.089844 C 292.542969 74.320312 292.722656 74.511719 292.945312 74.667969 C 332.851562 104.347656 356.074219 150.011719 356.675781 199.957031 C 356.878906 216.527344 354.554688 232.730469 349.695312 248.570312 C 346.625 252.488281 343.566406 256.410156 340.402344 260.253906 C 336.839844 264.679688 333.054688 268.90625 329.042969 272.933594 C 328.136719 273.824219 327.207031 274.6875 326.261719 275.527344 C 325.804688 275.933594 325.339844 276.332031 324.871094 276.714844 L 324.21875 277.246094 L 323.9375 277.46875 C 324.152344 277.292969 323.882812 277.46875 323.824219 277.550781 C 321.535156 279.285156 319.074219 280.789062 316.71875 282.433594 C 314.148438 284.121094 311.835938 286.109375 309.78125 288.398438 C 307.792969 290.703125 306.402344 293.324219 305.601562 296.261719 C 305.226562 297.664062 304.996094 299.085938 304.914062 300.535156 C 304.828125 301.984375 304.894531 303.425781 305.105469 304.859375 C 305.320312 306.296875 305.675781 307.695312 306.175781 309.058594 C 306.679688 310.417969 307.3125 311.714844 308.078125 312.949219 C 308.492188 313.574219 308.945312 314.167969 309.417969 314.757812 C 305.773438 318.367188 301.964844 321.792969 297.984375 325.03125 C 294.007812 328.269531 289.882812 331.304688 285.605469 334.140625 C 281.332031 336.976562 276.929688 339.59375 272.398438 342 C 267.867188 344.402344 263.230469 346.582031 258.484375 348.53125 C 253.742188 350.480469 248.914062 352.195312 244 353.675781 C 239.089844 355.152344 234.117188 356.386719 229.085938 357.378906 C 224.050781 358.371094 218.984375 359.113281 213.878906 359.609375 C 208.773438 360.105469 203.65625 360.351562 198.523438 360.347656 L 198.253906 360.347656 C 193.179688 360.367188 188.121094 360.140625 183.070312 359.671875 C 178.019531 359.203125 173.003906 358.492188 168.023438 357.539062 C 163.042969 356.585938 158.117188 355.394531 153.25 353.964844 C 148.386719 352.539062 143.597656 350.878906 138.894531 348.984375 C 134.1875 347.09375 129.582031 344.980469 125.082031 342.644531 C 120.578125 340.308594 116.199219 337.761719 111.945312 335.003906 C 107.6875 332.246094 103.574219 329.285156 99.605469 326.132812 C 95.636719 322.976562 91.828125 319.636719 88.179688 316.109375 C 88.777344 315.066406 89.308594 313.992188 89.769531 312.882812 C 90.234375 311.769531 90.628906 310.636719 90.949219 309.476562 C 91.269531 308.320312 91.519531 307.144531 91.695312 305.953125 C 91.867188 304.761719 91.96875 303.566406 91.992188 302.363281 C 92.019531 301.164062 91.96875 299.960938 91.84375 298.765625 C 91.71875 297.570312 91.519531 296.386719 91.246094 295.214844 C 90.972656 294.042969 90.628906 292.894531 90.214844 291.765625 C 89.796875 290.636719 89.3125 289.539062 88.757812 288.472656 C 86.535156 284.226562 83.03125 281.035156 79.726562 277.683594 C 78.902344 276.855469 78.148438 276.03125 77.421875 275.203125 L 76.917969 274.59375 L 76.871094 274.535156 C 76.796875 274.453125 76.730469 274.34375 76.664062 274.253906 C 76.339844 273.824219 76.035156 273.378906 75.753906 272.914062 C 75.484375 272.484375 75.234375 272.042969 75.011719 271.585938 L 74.835938 271.207031 C 74.738281 270.949219 74.648438 270.695312 74.558594 270.429688 C 74.398438 269.949219 74.277344 269.457031 74.183594 268.960938 C 74.183594 268.859375 74.136719 268.726562 74.128906 268.613281 L 74.128906 268.511719 C 74.128906 268.242188 74.128906 267.976562 74.078125 267.6875 C 74.078125 267.257812 74.078125 266.859375 74.136719 266.40625 C 74.136719 266.40625 74.136719 266.449219 74.136719 266.472656 C 74.164062 266.359375 74.183594 266.242188 74.191406 266.125 C 74.191406 265.902344 74.277344 265.679688 74.332031 265.457031 C 74.429688 265.046875 74.550781 264.640625 74.6875 264.242188 C 74.761719 264.027344 74.847656 263.820312 74.921875 263.605469 L 75.042969 263.324219 C 75.832031 261.652344 76.792969 260.082031 77.917969 258.617188 C 77.992188 258.515625 78.074219 258.417969 78.140625 258.320312 L 78.539062 257.816406 L 79.496094 256.640625 C 80.109375 255.890625 80.726562 255.15625 81.332031 254.402344 C 82.628906 252.859375 83.8125 251.234375 84.890625 249.53125 C 87.003906 246.019531 88.078125 241.824219 86.773438 237.816406 C 85.230469 233.117188 81.140625 229.738281 76.8125 227.640625 C 71.671875 225.265625 66.273438 223.949219 60.621094 223.683594 C 54.878906 223.328125 49.253906 223.980469 43.746094 225.640625 C 43.027344 225.855469 42.324219 226.09375 41.628906 226.34375 C 40.449219 218.609375 39.832031 210.835938 39.777344 203.015625 C 39.699219 193.789062 40.425781 184.625 41.949219 175.523438 C 43.476562 166.425781 45.78125 157.527344 48.867188 148.832031 C 49.308594 147.625 49.882812 146.488281 50.597656 145.421875 C 51.3125 144.355469 52.144531 143.390625 53.089844 142.523438 C 54.035156 141.65625 55.074219 140.914062 56.199219 140.296875 C 57.324219 139.679688 58.503906 139.203125 59.746094 138.871094 C 66.453125 136.996094 71.5 136.976562 73.9375 138.871094 C 75.285156 139.886719 75.9375 141.554688 75.9375 143.949219 C 75.9375 151.796875 72.335938 159.324219 68.5 167.292969 C 64.667969 175.265625 60.695312 183.609375 60.695312 192.367188 C 60.695312 197.125 61.15625 202.1875 64.585938 203.609375 C 69.292969 205.558594 75.871094 200.054688 94.539062 181.386719 C 105.34375 170.582031 115.792969 168.171875 124.1875 166.195312 C 133.777344 163.964844 142.0625 162.066406 144.878906 148.734375 C 147.433594 136.648438 143.046875 125.015625 139.179688 114.75 C 135.445312 104.835938 131.925781 95.527344 135.097656 87.488281 C 138.59375 78.632812 142.453125 74.941406 145.753906 72.488281 C 146.609375 71.871094 147.410156 71.1875 148.15625 70.445312 C 148.90625 69.699219 149.589844 68.902344 150.207031 68.050781 C 150.828125 67.199219 151.375 66.300781 151.855469 65.363281 C 152.332031 64.421875 152.730469 63.449219 153.054688 62.445312 C 153.378906 61.445312 153.621094 60.421875 153.78125 59.378906 C 153.941406 58.335938 154.019531 57.289062 154.015625 56.234375 C 154.011719 55.179688 153.921875 54.132812 153.75 53.09375 C 153.578125 52.054688 153.324219 51.035156 152.992188 50.035156 C 166.613281 45.992188 180.523438 43.820312 194.726562 43.515625 L 194.773438 43.515625 C 196.425781 43.515625 197.996094 43.464844 199.605469 43.515625 C 199.871094 43.515625 200.128906 43.464844 200.371094 43.363281 C 200.617188 43.261719 200.832031 43.117188 201.019531 42.929688 C 201.207031 42.742188 201.351562 42.527344 201.453125 42.28125 C 201.554688 42.039062 201.605469 41.78125 201.605469 41.515625 C 201.605469 41.253906 201.554688 40.996094 201.453125 40.753906 C 201.351562 40.507812 201.207031 40.289062 201.019531 40.105469 C 200.832031 39.917969 200.617188 39.773438 200.371094 39.671875 C 200.128906 39.570312 199.871094 39.519531 199.605469 39.519531 L 197.839844 39.519531 C 192.296875 39.519531 186.765625 39.808594 181.25 40.378906 C 175.734375 40.945312 170.265625 41.796875 164.835938 42.925781 C 159.410156 44.058594 154.050781 45.460938 148.769531 47.140625 C 143.484375 48.816406 138.300781 50.761719 133.214844 52.972656 C 128.128906 55.179688 123.171875 57.644531 118.339844 60.363281 C 113.503906 63.078125 108.824219 66.035156 104.292969 69.234375 C 99.765625 72.429688 95.410156 75.847656 91.230469 79.492188 C 87.050781 83.132812 83.066406 86.980469 79.28125 91.03125 C 79.097656 91.226562 78.957031 91.445312 78.859375 91.695312 C 78.765625 91.945312 78.71875 92.203125 78.726562 92.472656 C 78.734375 92.738281 78.792969 92.992188 78.90625 93.238281 C 79.015625 93.480469 79.167969 93.695312 79.363281 93.875 C 79.558594 94.058594 79.78125 94.195312 80.03125 94.289062 C 80.285156 94.382812 80.542969 94.421875 80.808594 94.410156 C 81.078125 94.398438 81.332031 94.335938 81.574219 94.222656 C 81.816406 94.109375 82.027344 93.957031 82.207031 93.757812 C 86.769531 88.867188 91.625 84.28125 96.769531 80.007812 C 101.914062 75.730469 107.308594 71.796875 112.953125 68.207031 C 118.59375 64.613281 124.441406 61.394531 130.496094 58.542969 C 136.546875 55.695312 142.753906 53.238281 149.117188 51.175781 C 149.390625 51.976562 149.597656 52.796875 149.742188 53.632812 C 149.882812 54.46875 149.957031 55.3125 149.964844 56.160156 C 149.972656 57.007812 149.914062 57.851562 149.785156 58.691406 C 149.660156 59.53125 149.464844 60.351562 149.207031 61.160156 C 148.949219 61.96875 148.628906 62.75 148.246094 63.507812 C 147.859375 64.265625 147.417969 64.984375 146.921875 65.671875 C 146.421875 66.359375 145.871094 67 145.269531 67.597656 C 144.667969 68.199219 144.023438 68.746094 143.335938 69.238281 C 139.578125 72.023438 135.214844 76.1875 131.339844 85.984375 C 127.605469 95.453125 131.390625 105.496094 135.398438 116.121094 C 139.253906 126.347656 143.246094 136.921875 140.929688 147.867188 C 138.644531 158.671875 132.84375 160.023438 123.246094 162.253906 C 114.355469 164.328125 103.289062 166.898438 91.679688 178.511719 C 82.675781 187.507812 69.089844 201.089844 66.074219 199.867188 C 65.832031 199.765625 64.652344 198.941406 64.652344 192.324219 C 64.652344 184.476562 68.253906 176.953125 72.085938 168.980469 C 75.917969 161.007812 79.902344 152.664062 79.902344 143.910156 C 79.902344 140.222656 78.695312 137.441406 76.324219 135.648438 C 72.765625 132.945312 66.808594 132.730469 58.628906 135.019531 C 57.085938 135.445312 55.613281 136.046875 54.214844 136.828125 C 52.8125 137.605469 51.527344 138.539062 50.351562 139.628906 C 49.175781 140.714844 48.144531 141.929688 47.257812 143.261719 C 46.375 144.597656 45.660156 146.019531 45.117188 147.527344 C 44.027344 150.578125 43.027344 153.65625 42.125 156.765625 C 41.21875 159.875 40.40625 163.011719 39.691406 166.167969 C 38.972656 169.328125 38.351562 172.503906 37.824219 175.699219 C 37.296875 178.898438 36.863281 182.105469 36.53125 185.328125 C 36.195312 188.546875 35.957031 191.777344 35.816406 195.011719 C 35.671875 198.25 35.628906 201.484375 35.679688 204.726562 C 35.734375 207.964844 35.882812 211.199219 36.128906 214.425781 C 36.375 217.65625 36.714844 220.875 37.15625 224.085938 C 37.59375 227.292969 38.128906 230.488281 38.757812 233.664062 C 39.390625 236.839844 40.113281 239.996094 40.933594 243.128906 C 41.75 246.265625 42.664062 249.371094 43.667969 252.449219 C 44.671875 255.527344 45.769531 258.574219 46.957031 261.589844 C 48.144531 264.601562 49.421875 267.578125 50.789062 270.515625 C 52.152344 273.449219 53.605469 276.34375 55.144531 279.195312 C 56.683594 282.042969 58.304688 284.84375 60.011719 287.597656 C 61.71875 290.351562 63.507812 293.050781 65.375 295.695312 C 67.242188 298.34375 69.191406 300.929688 71.214844 303.457031 C 73.238281 305.988281 75.335938 308.453125 77.503906 310.859375 C 79.675781 313.261719 81.917969 315.597656 84.226562 317.867188 C 86.539062 320.136719 88.917969 322.335938 91.359375 324.460938 C 93.800781 326.589844 96.304688 328.640625 98.871094 330.617188 C 101.4375 332.59375 104.058594 334.492188 106.738281 336.3125 C 109.417969 338.132812 112.148438 339.871094 114.933594 341.527344 C 117.714844 343.183594 120.546875 344.753906 123.425781 346.242188 C 126.300781 347.730469 129.222656 349.128906 132.183594 350.441406 C 135.144531 351.753906 138.140625 352.972656 141.175781 354.105469 C 144.210938 355.238281 147.277344 356.28125 150.375 357.230469 C 153.46875 358.175781 156.59375 359.03125 159.742188 359.792969 C 162.890625 360.554688 166.058594 361.222656 169.246094 361.796875 C 172.433594 362.367188 175.636719 362.84375 178.851562 363.222656 C 182.070312 363.605469 185.292969 363.886719 188.527344 364.074219 C 191.761719 364.261719 194.996094 364.351562 198.234375 364.34375 L 198.523438 364.34375 C 201.203125 364.339844 203.875 364.269531 206.550781 364.132812 C 209.222656 363.996094 211.890625 363.792969 214.554688 363.523438 C 217.214844 363.253906 219.871094 362.921875 222.515625 362.523438 C 225.164062 362.121094 227.796875 361.65625 230.421875 361.125 C 233.042969 360.597656 235.652344 360 238.246094 359.34375 C 240.839844 358.683594 243.417969 357.960938 245.976562 357.175781 C 248.535156 356.386719 251.070312 355.539062 253.585938 354.625 C 256.101562 353.714844 258.59375 352.742188 261.0625 351.707031 C 263.53125 350.671875 265.972656 349.574219 268.386719 348.421875 C 270.800781 347.265625 273.183594 346.050781 275.539062 344.777344 C 277.894531 343.503906 280.214844 342.171875 282.503906 340.785156 C 284.789062 339.394531 287.042969 337.953125 289.261719 336.453125 C 291.476562 334.953125 293.65625 333.398438 295.796875 331.792969 C 297.9375 330.183594 300.035156 328.527344 302.09375 326.816406 C 304.152344 325.105469 306.164062 323.34375 308.136719 321.535156 C 310.109375 319.722656 312.03125 317.863281 313.910156 315.957031 C 315.792969 314.054688 317.621094 312.101562 319.40625 310.105469 C 321.1875 308.109375 322.921875 306.070312 324.601562 303.988281 C 326.285156 301.90625 327.914062 299.785156 329.492188 297.625 C 331.070312 295.460938 332.589844 293.261719 334.058594 291.023438 C 335.527344 288.785156 336.941406 286.511719 338.296875 284.207031 C 339.652344 281.898438 340.949219 279.558594 342.191406 277.1875 C 343.433594 274.816406 344.613281 272.414062 345.734375 269.984375 C 346.855469 267.554688 347.917969 265.097656 348.917969 262.617188 C 349.917969 260.132812 350.855469 257.628906 351.734375 255.101562 C 352.609375 252.570312 353.425781 250.023438 354.175781 247.453125 C 354.925781 244.882812 355.613281 242.296875 356.234375 239.695312 C 356.859375 237.09375 357.414062 234.476562 357.910156 231.84375 C 358.402344 229.214844 358.832031 226.574219 359.195312 223.921875 C 359.558594 221.269531 359.855469 218.613281 360.085938 215.945312 C 360.316406 213.277344 360.484375 210.609375 360.582031 207.933594 C 360.683594 205.257812 360.714844 202.585938 360.683594 199.90625 C 360.0625 148.707031 336.246094 101.886719 295.332031 71.460938 Z M 42.308594 230.398438 C 44.425781 229.609375 46.59375 228.984375 48.808594 228.523438 C 49.460938 228.390625 50.121094 228.265625 50.78125 228.160156 L 51.824219 228.003906 L 51.882812 228.003906 L 52.609375 227.910156 C 53.9375 227.769531 55.277344 227.679688 56.621094 227.648438 C 57.96875 227.613281 59.421875 227.648438 60.828125 227.738281 C 61.496094 227.78125 62.15625 227.835938 62.828125 227.910156 L 63.601562 228.003906 L 63.925781 228.050781 L 64.46875 228.132812 C 67.164062 228.550781 69.796875 229.210938 72.367188 230.117188 L 73.195312 230.429688 L 73.597656 230.597656 C 74.144531 230.820312 74.679688 231.074219 75.199219 231.339844 C 76.203125 231.839844 77.164062 232.40625 78.085938 233.042969 C 78.300781 233.199219 78.539062 233.347656 78.746094 233.519531 L 79.09375 233.800781 C 79.546875 234.179688 79.984375 234.578125 80.398438 235 C 80.742188 235.332031 81.0625 235.6875 81.355469 236.066406 C 81.304688 236 81.273438 235.964844 81.355469 236.140625 L 81.601562 236.484375 C 81.761719 236.71875 81.917969 236.957031 82.058594 237.203125 C 82.207031 237.445312 82.339844 237.695312 82.460938 237.949219 C 82.507812 238.03125 82.550781 238.117188 82.585938 238.203125 C 82.585938 238.226562 82.585938 238.25 82.585938 238.269531 C 82.839844 238.773438 83 239.304688 83.074219 239.863281 C 83.140625 240.074219 83.1875 240.289062 83.207031 240.507812 L 83.207031 240.625 C 83.214844 240.730469 83.214844 240.839844 83.207031 240.945312 C 83.238281 241.394531 83.238281 241.84375 83.207031 242.292969 C 83.207031 242.476562 83.050781 243.242188 83.207031 242.558594 C 83.164062 242.746094 83.148438 242.9375 83.105469 243.121094 C 83.054688 243.566406 82.976562 244.003906 82.875 244.441406 C 82.757812 244.804688 82.621094 245.152344 82.488281 245.507812 L 82.363281 245.78125 L 82.050781 246.40625 C 81.625 247.214844 81.152344 247.992188 80.636719 248.746094 C 80.398438 249.101562 80.148438 249.449219 79.894531 249.792969 C 79.761719 249.976562 79.628906 250.15625 79.488281 250.332031 C 79.40625 250.421875 79.339844 250.53125 79.257812 250.628906 C 78.09375 252.105469 76.871094 253.542969 75.6875 255.015625 C 73.324219 257.972656 70.929688 261.234375 70.261719 265.050781 C 69.84375 267.269531 69.984375 269.449219 70.683594 271.59375 C 71.496094 273.824219 72.679688 275.835938 74.226562 277.632812 C 75.675781 279.332031 77.207031 280.949219 78.820312 282.488281 C 79.644531 283.316406 80.421875 284.074219 81.191406 284.894531 C 81.546875 285.273438 81.890625 285.652344 82.230469 286.042969 L 82.792969 286.710938 L 82.984375 286.941406 L 83.125 287.117188 C 83.8125 288.039062 84.433594 289 84.988281 290.007812 C 85.246094 290.46875 85.484375 290.949219 85.71875 291.429688 C 85.832031 291.683594 85.949219 291.933594 86.054688 292.1875 L 86.277344 292.757812 C 86.683594 293.839844 87.019531 294.9375 87.285156 296.0625 C 87.402344 296.582031 87.507812 297.113281 87.609375 297.640625 C 87.609375 297.894531 87.707031 298.167969 87.734375 298.464844 C 87.734375 298.671875 87.773438 298.871094 87.796875 299.078125 C 87.910156 300.195312 87.953125 301.316406 87.929688 302.441406 C 87.929688 303 87.890625 303.5625 87.839844 304.09375 C 87.839844 304.398438 87.78125 304.703125 87.75 305.007812 C 87.75 305.007812 87.75 305.222656 87.75 305.28125 C 87.75 305.339844 87.75 305.453125 87.707031 305.539062 C 87.535156 306.65625 87.289062 307.757812 86.972656 308.839844 C 86.816406 309.378906 86.640625 309.90625 86.453125 310.4375 L 86.121094 311.261719 L 85.898438 311.765625 C 85.675781 312.238281 85.445312 312.691406 85.195312 313.144531 C 79.644531 307.527344 74.542969 301.523438 69.894531 295.132812 C 65.246094 288.742188 61.105469 282.042969 57.46875 275.027344 C 53.835938 268.011719 50.746094 260.765625 48.203125 253.285156 C 45.664062 245.804688 43.695312 238.175781 42.308594 230.398438 Z M 309.035156 299.300781 Z M 310.167969 308.347656 L 310.226562 308.488281 C 310.199219 308.4375 310.179688 308.386719 310.167969 308.328125 Z M 312.25 311.929688 L 311.984375 311.566406 C 311.792969 311.304688 311.613281 311.027344 311.441406 310.742188 C 311.085938 310.1875 310.769531 309.613281 310.484375 309.023438 L 310.257812 308.542969 C 310.128906 308.214844 310.003906 307.882812 309.886719 307.554688 C 309.675781 306.929688 309.492188 306.300781 309.34375 305.660156 C 309.277344 305.363281 309.21875 305.066406 309.160156 304.769531 C 309.160156 304.597656 309.101562 304.429688 309.078125 304.257812 C 309.054688 304.082031 309.078125 304.125 309.078125 304.101562 C 309.003906 303.449219 308.960938 302.785156 308.945312 302.125 C 308.929688 301.464844 308.945312 300.8125 309.011719 300.160156 C 309.011719 299.984375 309.011719 299.804688 309.070312 299.632812 L 309.070312 299.558594 C 309.167969 299.214844 309.226562 298.871094 309.242188 298.515625 C 309.375 297.871094 309.539062 297.234375 309.730469 296.609375 C 309.820312 296.328125 309.921875 296.039062 310.027344 295.78125 C 310.136719 295.527344 310.160156 295.449219 310.21875 295.285156 C 310.277344 295.121094 310.160156 295.410156 310.160156 295.410156 C 310.191406 295.3125 310.234375 295.222656 310.285156 295.136719 C 310.554688 294.539062 310.855469 293.957031 311.191406 293.394531 C 311.359375 293.113281 311.539062 292.832031 311.722656 292.566406 L 312.003906 292.171875 L 312.199219 291.898438 C 313.082031 290.789062 314.058594 289.765625 315.125 288.835938 C 315.660156 288.363281 316.214844 287.910156 316.777344 287.464844 L 316.894531 287.371094 L 317.355469 287.023438 L 318.230469 286.390625 C 320.59375 284.738281 323.054688 283.191406 325.394531 281.492188 C 327.386719 280.015625 329.277344 278.417969 331.066406 276.699219 C 335.003906 272.867188 338.707031 268.824219 342.179688 264.5625 C 343.394531 263.109375 344.582031 261.632812 345.773438 260.160156 C 341.9375 269.804688 337.203125 278.980469 331.5625 287.6875 C 325.917969 296.398438 319.484375 304.472656 312.25 311.914062 Z M 312.25 311.929688 " fill-opacity="1" fill-rule="nonzero"/></g><path fill="#09285c" d="M 192.570312 166.550781 C 193.140625 168.328125 194.019531 169.9375 195.195312 171.382812 C 196.375 172.828125 197.777344 174.007812 199.402344 174.925781 C 201.230469 175.898438 203.175781 176.476562 205.234375 176.660156 C 207.296875 176.847656 209.316406 176.628906 211.289062 176 C 215.144531 174.820312 218.585938 172.894531 221.605469 170.21875 C 222.28125 170.9375 222.984375 171.648438 223.710938 172.324219 C 225.210938 173.800781 226.882812 175.042969 228.726562 176.046875 C 230.574219 177.054688 232.523438 177.789062 234.574219 178.25 C 239.167969 179.15625 243.828125 178.679688 248.453125 178.355469 C 252.636719 177.996094 256.800781 178.167969 260.941406 178.875 C 268.9375 180.40625 276.390625 184.15625 281.726562 190.367188 C 282.996094 191.820312 284.113281 193.386719 285.074219 195.0625 C 286.035156 196.738281 286.820312 198.492188 287.4375 200.320312 C 288.050781 202.152344 288.480469 204.023438 288.722656 205.941406 C 288.96875 207.855469 289.023438 209.777344 288.890625 211.703125 C 288.722656 213.484375 288.375 215.226562 287.839844 216.933594 C 287.34375 218.59375 286.675781 220.1875 285.839844 221.707031 C 284.125 224.910156 281.945312 227.753906 279.296875 230.242188 C 276.628906 232.824219 273.671875 235.027344 270.433594 236.851562 C 266.984375 238.816406 263.359375 240.367188 259.554688 241.507812 C 250.585938 244.292969 241.207031 245.316406 231.90625 246.40625 C 223.199219 247.421875 214.460938 248.53125 206.050781 251.109375 C 198.03125 253.585938 190.3125 257.371094 184.226562 263.234375 C 177.875 269.347656 173.742188 277.375 167.242188 283.347656 C 164.402344 286.097656 161.097656 288.066406 157.328125 289.253906 C 155.492188 289.808594 153.621094 289.996094 151.710938 289.808594 C 151.546875 289.804688 151.378906 289.789062 151.214844 289.757812 L 150.539062 289.628906 C 150.054688 289.519531 149.578125 289.378906 149.109375 289.207031 C 148.378906 288.898438 147.71875 288.480469 147.136719 287.941406 C 146.84375 287.679688 146.601562 287.378906 146.398438 287.042969 C 146.199219 286.714844 146.019531 286.375 145.863281 286.027344 C 145.6875 285.570312 145.550781 285.105469 145.449219 284.628906 C 145.355469 284.25 145.296875 283.863281 145.269531 283.472656 C 145.179688 282.507812 145.179688 281.539062 145.269531 280.574219 C 145.269531 280.367188 145.308594 280.160156 145.335938 279.953125 C 145.335938 279.894531 145.335938 279.671875 145.390625 279.605469 C 145.457031 279.1875 145.542969 278.78125 145.640625 278.351562 C 145.824219 277.511719 146.054688 276.6875 146.335938 275.875 C 146.472656 275.476562 146.625 275.046875 146.78125 274.691406 C 146.78125 274.652344 146.78125 274.609375 146.78125 274.566406 L 146.839844 274.453125 C 146.929688 274.246094 147.019531 274.03125 147.117188 273.824219 C 147.847656 272.277344 148.691406 270.796875 149.648438 269.378906 C 150.125 268.652344 150.628906 267.941406 151.160156 267.25 C 151.597656 266.65625 151.984375 266.132812 152.605469 265.398438 C 153.734375 264.003906 154.917969 262.648438 156.113281 261.269531 C 158.519531 258.542969 160.980469 255.859375 163.226562 253.007812 C 165.71875 250.035156 167.75 246.777344 169.324219 243.234375 C 170.898438 239.691406 171.953125 235.996094 172.488281 232.15625 C 173.734375 224.167969 173.363281 216.074219 173.050781 208.027344 C 172.890625 204.011719 172.75 200 172.835938 195.984375 C 172.882812 194.007812 172.976562 192.042969 173.164062 190.078125 C 173.332031 188.242188 173.609375 186.425781 173.992188 184.625 C 174.679688 181.011719 175.867188 177.566406 177.550781 174.292969 C 177.675781 174.058594 177.757812 173.8125 177.789062 173.550781 C 177.820312 173.289062 177.804688 173.03125 177.738281 172.777344 C 177.671875 172.523438 177.558594 172.289062 177.402344 172.078125 C 177.246094 171.863281 177.054688 171.6875 176.832031 171.550781 C 176.601562 171.417969 176.355469 171.335938 176.09375 171.300781 C 175.832031 171.269531 175.574219 171.285156 175.320312 171.351562 C 175.0625 171.417969 174.832031 171.53125 174.617188 171.691406 C 174.40625 171.847656 174.234375 172.042969 174.097656 172.265625 C 170.222656 179.652344 169.027344 187.964844 168.859375 196.222656 C 168.695312 204.484375 169.488281 212.746094 169.390625 221.003906 C 169.410156 224.992188 169.082031 228.949219 168.40625 232.875 C 167.710938 236.71875 166.460938 240.371094 164.65625 243.828125 C 161.171875 250.355469 155.925781 255.355469 151.074219 261.0625 C 146.226562 266.769531 141.914062 273.082031 141.253906 280.730469 C 140.882812 285.117188 142.179688 289.875 146.210938 292.195312 C 150.042969 294.402344 155.050781 294.179688 159.136719 292.839844 C 167.910156 289.972656 173.726562 282.597656 179.0625 275.492188 C 181.683594 271.773438 184.632812 268.335938 187.910156 265.183594 C 191.003906 262.433594 194.417969 260.167969 198.152344 258.386719 C 205.589844 254.726562 214.144531 252.808594 222.464844 251.5625 C 232.082031 250.125 241.8125 249.488281 251.378906 247.613281 C 260.027344 245.910156 268.550781 243.121094 275.871094 238.097656 C 282.480469 233.59375 287.996094 227.554688 290.945312 220.070312 C 294.070312 212.148438 293.367188 203.351562 289.847656 195.695312 C 288.925781 193.757812 287.84375 191.914062 286.59375 190.171875 C 285.34375 188.425781 283.953125 186.804688 282.417969 185.308594 C 280.878906 183.808594 279.222656 182.460938 277.445312 181.257812 C 275.667969 180.054688 273.800781 179.019531 271.839844 178.148438 C 267.691406 176.285156 263.359375 175.074219 258.84375 174.515625 C 254.34375 173.9375 249.890625 174.242188 245.378906 174.5625 C 243.019531 174.769531 240.652344 174.816406 238.285156 174.703125 C 237.214844 174.648438 236.164062 174.503906 235.121094 174.265625 C 234.617188 174.160156 234.121094 174.027344 233.625 173.871094 L 232.800781 173.582031 L 232.246094 173.359375 C 229.28125 171.9375 226.722656 169.984375 224.570312 167.5 C 227.097656 165.023438 229.46875 162.378906 231.890625 159.894531 C 234.652344 156.859375 237.847656 154.382812 241.472656 152.457031 C 241.699219 152.324219 241.890625 152.148438 242.050781 151.9375 C 242.207031 151.726562 242.320312 151.492188 242.386719 151.238281 C 242.457031 150.980469 242.472656 150.722656 242.4375 150.460938 C 242.402344 150.199219 242.320312 149.953125 242.191406 149.722656 C 242.054688 149.5 241.878906 149.308594 241.664062 149.148438 C 241.453125 148.992188 241.21875 148.878906 240.964844 148.8125 C 240.707031 148.746094 240.449219 148.730469 240.1875 148.761719 C 239.925781 148.796875 239.679688 148.875 239.449219 149.003906 C 232.261719 152.574219 227.546875 159.148438 221.917969 164.617188 C 219.808594 162.050781 217.460938 159.730469 214.875 157.644531 C 211.863281 155.421875 208.503906 154.089844 204.785156 153.648438 C 203.035156 153.382812 201.3125 153.503906 199.617188 154.011719 C 197.921875 154.515625 196.414062 155.359375 195.097656 156.539062 C 194.445312 157.175781 193.894531 157.890625 193.441406 158.679688 C 192.988281 159.46875 192.648438 160.308594 192.425781 161.191406 C 192.203125 162.074219 192.105469 162.96875 192.128906 163.878906 C 192.152344 164.789062 192.300781 165.679688 192.570312 166.550781 Z M 198.019531 168.515625 C 197.855469 168.320312 197.988281 168.484375 198.019531 168.515625 Z M 196.5 161.355469 Z M 196.144531 162.695312 C 196.144531 162.808594 196.144531 162.816406 196.144531 162.695312 Z M 196.144531 162.898438 C 196.148438 162.824219 196.148438 162.75 196.144531 162.675781 C 196.21875 162.328125 196.292969 161.992188 196.402344 161.652344 C 196.402344 161.554688 196.476562 161.453125 196.507812 161.347656 C 196.542969 161.238281 196.683594 160.992188 196.78125 160.808594 L 197.070312 160.332031 L 197.261719 160.066406 C 197.496094 159.769531 197.75 159.496094 198.03125 159.242188 C 198.121094 159.15625 198.21875 159.066406 198.328125 158.984375 L 198.558594 158.8125 C 198.886719 158.59375 199.226562 158.398438 199.582031 158.222656 C 199.65625 158.222656 199.804688 158.125 199.847656 158.109375 L 200.203125 157.984375 C 200.585938 157.863281 200.972656 157.757812 201.367188 157.679688 L 201.746094 157.613281 L 202.042969 157.613281 C 202.460938 157.574219 202.878906 157.5625 203.300781 157.570312 C 203.664062 157.570312 204.027344 157.570312 204.390625 157.628906 L 204.722656 157.628906 L 205.339844 157.738281 C 206.15625 157.894531 206.957031 158.105469 207.746094 158.371094 C 208.089844 158.488281 208.421875 158.613281 208.761719 158.753906 L 209.164062 158.925781 L 209.785156 159.214844 C 210.535156 159.59375 211.261719 160.015625 211.964844 160.480469 C 212.261719 160.679688 212.550781 160.882812 212.839844 161.097656 L 213.164062 161.355469 L 213.660156 161.785156 C 214.378906 162.429688 215.070312 163.105469 215.742188 163.808594 C 216.832031 164.933594 217.878906 166.105469 218.921875 167.277344 C 216.445312 169.421875 213.65625 171.015625 210.554688 172.0625 C 208.707031 172.640625 206.820312 172.847656 204.894531 172.679688 L 204.671875 172.679688 L 204.117188 172.574219 C 203.683594 172.476562 203.253906 172.347656 202.835938 172.191406 L 202.523438 172.078125 L 202.09375 171.878906 C 201.691406 171.679688 201.300781 171.460938 200.921875 171.21875 C 200.613281 171.027344 200.316406 170.820312 200.027344 170.605469 C 199.972656 170.550781 199.746094 170.367188 199.707031 170.335938 C 199.53125 170.1875 199.367188 170.039062 199.210938 169.878906 C 198.921875 169.621094 198.644531 169.34375 198.386719 169.054688 C 198.246094 168.898438 198.113281 168.730469 197.980469 168.566406 L 197.757812 168.269531 C 197.550781 167.957031 197.34375 167.640625 197.164062 167.320312 C 197.054688 167.128906 196.957031 166.9375 196.855469 166.75 C 196.855469 166.683594 196.734375 166.46875 196.691406 166.394531 C 196.421875 165.726562 196.230469 165.039062 196.113281 164.328125 C 196.113281 164.261719 196.113281 164.148438 196.113281 164.074219 C 196.113281 164 196.113281 163.726562 196.113281 163.550781 C 196.113281 163.378906 196.121094 163.097656 196.128906 162.898438 Z M 196.144531 162.898438 " fill-opacity="1" fill-rule="nonzero"/><path fill="#09285c" d="M 267.824219 327.484375 C 268.34375 327.484375 268.863281 327.484375 269.378906 327.484375 C 269.804688 327.472656 270.226562 327.5 270.648438 327.570312 L 270.773438 327.570312 L 271.046875 327.617188 C 271.320312 327.675781 271.582031 327.742188 271.871094 327.816406 C 272.089844 327.871094 272.300781 327.941406 272.507812 328.023438 L 272.589844 328.023438 L 272.757812 328.097656 C 272.949219 328.1875 273.136719 328.289062 273.316406 328.402344 L 273.582031 328.578125 C 273.742188 328.710938 273.894531 328.855469 274.035156 329.007812 L 274.203125 329.1875 C 274.308594 329.351562 274.417969 329.511719 274.507812 329.683594 C 274.597656 329.855469 274.605469 329.863281 274.648438 329.957031 C 274.648438 329.976562 274.648438 329.996094 274.648438 330.015625 C 274.722656 330.265625 274.847656 330.496094 275.011719 330.703125 C 275.175781 330.910156 275.375 331.078125 275.605469 331.210938 C 275.835938 331.339844 276.085938 331.421875 276.347656 331.457031 C 276.609375 331.492188 276.867188 331.476562 277.125 331.410156 C 277.382812 331.335938 277.613281 331.21875 277.824219 331.054688 C 278.03125 330.886719 278.203125 330.6875 278.332031 330.457031 C 278.464844 330.226562 278.546875 329.976562 278.578125 329.714844 C 278.609375 329.449219 278.59375 329.1875 278.523438 328.933594 C 278.117188 327.8125 277.496094 326.835938 276.65625 325.996094 C 275.8125 325.160156 274.832031 324.539062 273.714844 324.140625 C 271.652344 323.421875 269.53125 323.183594 267.363281 323.421875 C 265.15625 323.695312 262.980469 324.125 260.835938 324.710938 C 260.316406 324.828125 259.792969 324.941406 259.265625 325.03125 C 259.011719 325.082031 258.746094 325.132812 258.480469 325.164062 L 258.167969 325.214844 L 257.902344 325.214844 C 256.839844 325.378906 255.773438 325.441406 254.699219 325.394531 L 254.359375 325.394531 C 254.121094 325.355469 253.886719 325.296875 253.65625 325.238281 C 253.425781 325.179688 253.203125 325.109375 252.980469 325.023438 L 252.855469 324.976562 L 252.757812 324.976562 L 252.574219 324.867188 C 252.367188 324.761719 252.179688 324.628906 251.980469 324.511719 L 251.765625 324.332031 C 251.59375 324.164062 251.433594 323.984375 251.269531 323.820312 L 250.988281 323.378906 C 250.898438 323.222656 250.816406 323.058594 250.734375 322.894531 L 250.734375 322.84375 C 250.609375 322.542969 250.507812 322.234375 250.425781 321.917969 C 250.253906 321.300781 250.128906 320.65625 250.015625 320.019531 C 249.84375 318.773438 249.566406 317.550781 249.1875 316.351562 C 248.792969 315.304688 248.296875 314.308594 247.695312 313.363281 C 247.09375 312.421875 246.402344 311.546875 245.617188 310.75 C 244.835938 309.949219 243.980469 309.234375 243.050781 308.613281 C 242.121094 307.988281 241.140625 307.46875 240.101562 307.050781 C 237.957031 306.121094 235.722656 305.558594 233.398438 305.355469 C 231.070312 305.15625 228.773438 305.328125 226.503906 305.875 C 221.210938 307.171875 216.542969 310.214844 212.460938 313.789062 C 208.546875 317.242188 205.289062 321.289062 201.835938 325.179688 C 200.140625 327.125 198.324219 328.945312 196.386719 330.648438 L 195.691406 331.226562 L 195.320312 331.527344 L 195.238281 331.582031 C 194.707031 331.980469 194.164062 332.410156 193.585938 332.730469 C 192.496094 333.445312 191.351562 334.0625 190.15625 334.582031 L 190.097656 334.582031 L 189.984375 334.625 L 189.503906 334.804688 L 188.4375 335.175781 C 187.753906 335.398438 187.058594 335.589844 186.367188 335.761719 C 184.929688 336.117188 183.472656 336.382812 182.019531 336.589844 C 179.191406 336.976562 176.386719 337.503906 173.609375 338.175781 C 168.960938 339.4375 164.203125 342 161.691406 346.269531 C 161.0625 347.339844 160.605469 348.476562 160.328125 349.683594 C 160.257812 349.9375 160.238281 350.199219 160.273438 350.460938 C 160.304688 350.722656 160.386719 350.96875 160.519531 351.199219 C 160.648438 351.429688 160.820312 351.628906 161.027344 351.789062 C 161.238281 351.953125 161.46875 352.070312 161.726562 352.140625 C 161.980469 352.210938 162.238281 352.230469 162.503906 352.199219 C 162.765625 352.164062 163.011719 352.082031 163.242188 351.953125 C 163.472656 351.824219 163.671875 351.652344 163.832031 351.445312 C 163.996094 351.234375 164.113281 351.003906 164.183594 350.75 C 164.296875 350.277344 164.4375 349.816406 164.605469 349.359375 C 164.605469 349.410156 164.789062 348.9375 164.839844 348.839844 C 164.988281 348.558594 165.144531 348.285156 165.308594 348.015625 C 165.449219 347.789062 165.597656 347.578125 165.746094 347.363281 L 166.011719 347.039062 C 166.375 346.617188 166.761719 346.222656 167.175781 345.851562 C 167.375 345.667969 167.582031 345.496094 167.789062 345.320312 L 167.953125 345.195312 L 168.160156 345.039062 C 168.628906 344.710938 169.117188 344.394531 169.613281 344.105469 C 170.109375 343.816406 170.585938 343.570312 171.082031 343.332031 L 171.769531 343.023438 L 171.910156 342.957031 L 172.453125 342.75 C 177.542969 340.84375 183.09375 340.800781 188.308594 339.363281 C 190.988281 338.636719 193.492188 337.507812 195.816406 335.976562 C 197.996094 334.496094 200.007812 332.8125 201.847656 330.921875 C 205.414062 327.328125 208.453125 323.28125 212.015625 319.65625 C 212.921875 318.714844 213.855469 317.804688 214.832031 316.929688 C 215.269531 316.53125 215.714844 316.152344 216.160156 315.773438 L 216.878906 315.175781 L 217.242188 314.886719 L 217.335938 314.8125 L 217.425781 314.757812 C 219.441406 313.207031 221.605469 311.910156 223.917969 310.855469 L 224.140625 310.765625 L 224.449219 310.640625 L 225.273438 310.328125 C 225.875 310.113281 226.488281 309.933594 227.105469 309.765625 C 227.726562 309.601562 228.179688 309.503906 228.757812 309.402344 C 228.875 309.402344 229.667969 309.207031 229.113281 309.34375 C 229.410156 309.285156 229.707031 309.257812 230.007812 309.253906 C 231.015625 309.175781 232.023438 309.175781 233.03125 309.253906 L 233.78125 309.328125 L 233.847656 309.328125 L 234.144531 309.371094 C 234.699219 309.46875 235.234375 309.578125 235.796875 309.71875 C 236.359375 309.859375 236.765625 309.980469 237.234375 310.148438 L 237.945312 310.402344 L 238.21875 310.511719 L 238.265625 310.511719 L 238.359375 310.550781 C 239.277344 310.96875 240.160156 311.457031 241 312.015625 L 241.464844 312.351562 L 241.871094 312.667969 C 242.265625 313.011719 242.652344 313.375 243.015625 313.757812 C 243.183594 313.929688 243.339844 314.113281 243.496094 314.292969 L 243.679688 314.507812 C 243.949219 314.898438 244.222656 315.285156 244.464844 315.699219 C 244.675781 316.078125 244.867188 316.464844 245.042969 316.863281 C 245.042969 316.980469 245.191406 317.242188 245.222656 317.324219 C 245.3125 317.605469 245.40625 317.886719 245.480469 318.152344 C 245.816406 319.414062 245.949219 320.71875 246.230469 321.992188 C 246.441406 323.269531 246.90625 324.445312 247.628906 325.523438 C 248.347656 326.597656 249.257812 327.476562 250.359375 328.15625 C 254.375 330.410156 259.449219 329.328125 263.667969 328.203125 C 264.648438 327.894531 265.648438 327.6875 266.667969 327.578125 C 266.097656 327.617188 266.890625 327.578125 267.023438 327.578125 Z M 195.320312 331.292969 Z M 250.566406 322.585938 C 250.527344 322.511719 250.566406 322.539062 250.566406 322.585938 Z M 252.75 324.875 L 252.929688 324.949219 C 252.929688 324.949219 252.824219 324.917969 252.75 324.875 Z M 254.457031 325.355469 L 254.625 325.355469 C 254.570312 325.378906 254.515625 325.394531 254.457031 325.394531 Z M 254.457031 325.355469 " fill-opacity="1" fill-rule="nonzero"/><path fill="#09285c" d="M 78.160156 258.34375 L 78.09375 258.425781 C 78.019531 258.484375 77.917969 258.714844 78.160156 258.34375 Z M 78.160156 258.34375 " fill-opacity="1" fill-rule="nonzero"/><path fill="#09285c" d="M 79.511719 250.339844 C 79.175781 250.71875 79.429688 250.445312 79.511719 250.339844 Z M 79.511719 250.339844 " fill-opacity="1" fill-rule="nonzero"/><path fill="#09285c" d="M 74.117188 266.375 C 74.234375 265.917969 74.136719 266.214844 74.117188 266.375 Z M 74.117188 266.375 " fill-opacity="1" fill-rule="nonzero"/><path fill="#09285c" d="M 216.136719 39.789062 L 216.195312 39.660156 Z M 216.136719 39.789062 " fill-opacity="1" fill-rule="nonzero"/><g clip-path="url(#97c76ffb13)"><path fill="#09285c" d="M 226.660156 106.488281 C 232.648438 116.234375 239.003906 125.75 244.96875 135.515625 C 245.816406 136.910156 246.664062 138.308594 247.511719 139.71875 C 247.601562 139.867188 247.710938 140.003906 247.835938 140.121094 C 247.957031 140.242188 248.097656 140.34375 248.25 140.429688 C 248.398438 140.515625 248.558594 140.578125 248.726562 140.621094 C 248.894531 140.667969 249.0625 140.6875 249.238281 140.6875 C 249.410156 140.6875 249.582031 140.667969 249.75 140.621094 C 249.917969 140.578125 250.074219 140.515625 250.226562 140.429688 C 250.378906 140.34375 250.515625 140.242188 250.640625 140.121094 C 250.765625 140.003906 250.875 139.867188 250.964844 139.71875 C 256.867188 131.082031 262.222656 122.117188 267.023438 112.824219 C 269.328125 108.503906 271.574219 104.148438 273.871094 99.828125 C 276.25 95.351562 278.578125 90.898438 280.480469 86.207031 C 284.375 76.761719 286.753906 66.949219 287.617188 56.765625 C 288.0625 51.921875 288.0625 47.078125 287.617188 42.234375 C 287.273438 38.136719 286.230469 34.21875 284.496094 30.488281 C 282.722656 26.894531 280.1875 23.960938 276.886719 21.691406 C 273 19.105469 268.734375 17.589844 264.089844 17.148438 C 261.773438 16.890625 259.46875 16.976562 257.175781 17.410156 C 254.882812 17.839844 252.707031 18.597656 250.640625 19.683594 C 248.59375 20.839844 246.703125 22.21875 244.976562 23.8125 C 243.359375 25.253906 241.882812 26.824219 240.539062 28.523438 C 234.929688 35.628906 231.742188 44.632812 232.847656 53.726562 C 233.921875 62.433594 238.539062 71.511719 246.652344 75.59375 C 250.460938 77.507812 255.160156 78.484375 259.25 76.847656 C 263.941406 74.972656 266.429688 70.585938 267.824219 65.953125 C 269.21875 61.316406 269.722656 55.859375 268.0625 51.082031 C 267.691406 49.976562 267.203125 48.925781 266.597656 47.929688 C 265.988281 46.933594 265.277344 46.015625 264.464844 45.179688 C 263.652344 44.34375 262.757812 43.605469 261.78125 42.96875 C 260.800781 42.332031 259.765625 41.8125 258.671875 41.410156 C 256.554688 40.667969 254.398438 40.527344 252.203125 40.980469 C 251.945312 41.050781 251.710938 41.167969 251.503906 41.332031 C 251.292969 41.5 251.121094 41.695312 250.992188 41.929688 C 250.859375 42.160156 250.777344 42.410156 250.746094 42.675781 C 250.714844 42.941406 250.734375 43.203125 250.808594 43.457031 C 250.882812 43.710938 251.003906 43.945312 251.167969 44.152344 C 251.335938 44.359375 251.53125 44.527344 251.765625 44.660156 C 251.996094 44.789062 252.242188 44.871094 252.503906 44.90625 C 252.769531 44.941406 253.027344 44.929688 253.285156 44.863281 C 253.367188 44.863281 253.804688 44.789062 253.78125 44.78125 L 254.367188 44.78125 C 254.800781 44.773438 255.234375 44.792969 255.664062 44.839844 L 256.152344 44.921875 C 256.390625 44.96875 256.621094 45.019531 256.855469 45.085938 L 257.449219 45.277344 L 257.976562 45.472656 C 258.820312 45.847656 259.609375 46.3125 260.347656 46.863281 L 260.738281 47.175781 L 261.214844 47.605469 C 261.597656 47.96875 261.957031 48.351562 262.296875 48.753906 L 262.503906 49.019531 L 262.554688 49.074219 C 262.679688 49.257812 262.800781 49.429688 262.917969 49.613281 C 263.210938 50.046875 263.472656 50.496094 263.703125 50.96875 C 263.898438 51.332031 264.058594 51.714844 264.191406 52.105469 C 264.386719 52.675781 264.5625 53.253906 264.703125 53.84375 C 264.957031 54.847656 265.09375 55.871094 265.113281 56.90625 C 265.15625 58.0625 265.109375 59.210938 264.972656 60.359375 C 264.972656 60.46875 264.972656 60.574219 264.972656 60.683594 C 264.972656 60.710938 264.972656 60.742188 264.972656 60.773438 C 264.925781 61.0625 264.882812 61.34375 264.824219 61.597656 C 264.726562 62.167969 264.601562 62.730469 264.460938 63.300781 C 264.195312 64.390625 263.871094 65.460938 263.480469 66.515625 C 263.386719 66.769531 263.289062 67.027344 263.191406 67.273438 L 263.191406 67.324219 L 262.957031 67.664062 C 262.710938 68.183594 262.433594 68.691406 262.132812 69.183594 C 261.679688 70.042969 261.101562 70.800781 260.390625 71.460938 C 260.199219 71.644531 260.007812 71.816406 259.804688 71.992188 L 259.753906 71.992188 L 259.523438 72.15625 C 259.109375 72.445312 258.679688 72.695312 258.226562 72.90625 L 258.042969 73 L 257.984375 73 L 257.332031 73.222656 C 256.871094 73.355469 256.402344 73.460938 255.929688 73.535156 L 255.65625 73.535156 C 255.425781 73.535156 255.195312 73.535156 254.953125 73.535156 C 254.453125 73.546875 253.957031 73.53125 253.457031 73.484375 L 253.054688 73.4375 L 252.484375 73.328125 C 252.003906 73.238281 251.535156 73.113281 251.070312 72.980469 C 250.609375 72.851562 250.136719 72.667969 249.675781 72.496094 L 249.578125 72.617188 L 249.34375 72.511719 C 249.113281 72.414062 248.890625 72.304688 248.667969 72.1875 C 247.777344 71.742188 246.925781 71.230469 246.113281 70.652344 L 245.703125 70.339844 L 245.214844 69.941406 C 244.835938 69.621094 244.472656 69.28125 244.125 68.933594 C 243.402344 68.214844 242.726562 67.453125 242.09375 66.65625 L 242.042969 66.589844 L 241.8125 66.273438 L 241.363281 65.65625 C 241.074219 65.234375 240.804688 64.828125 240.539062 64.359375 C 240.003906 63.484375 239.523438 62.582031 239.09375 61.648438 L 238.820312 61.039062 L 238.648438 60.625 C 238.449219 60.121094 238.265625 59.609375 238.09375 59.085938 C 237.765625 58.109375 237.488281 57.121094 237.269531 56.113281 C 237.167969 55.644531 237.078125 55.164062 236.996094 54.691406 C 236.945312 54.4375 236.914062 54.179688 236.871094 53.925781 C 236.871094 53.757812 236.871094 53.585938 236.804688 53.421875 C 236.699219 52.394531 236.640625 51.363281 236.632812 50.332031 C 236.625 49.300781 236.671875 48.269531 236.773438 47.242188 L 236.847656 46.574219 L 236.847656 46.515625 L 236.894531 46.152344 C 236.980469 45.632812 237.070312 45.117188 237.175781 44.613281 C 237.390625 43.589844 237.65625 42.582031 237.960938 41.589844 C 238.109375 41.128906 238.265625 40.667969 238.433594 40.210938 C 238.523438 39.964844 238.613281 39.722656 238.714844 39.476562 C 238.753906 39.359375 238.804688 39.238281 238.855469 39.121094 L 238.855469 38.964844 C 239.675781 37.042969 240.667969 35.214844 241.828125 33.480469 C 242.09375 33.074219 242.371094 32.652344 242.652344 32.273438 C 242.800781 32.058594 242.960938 31.851562 243.117188 31.644531 L 243.207031 31.523438 L 243.472656 31.199219 C 244.125 30.375 244.808594 29.597656 245.535156 28.835938 C 246.265625 28.078125 246.964844 27.398438 247.71875 26.722656 C 248.105469 26.375 248.542969 26.035156 248.90625 25.699219 L 249.519531 25.210938 L 249.625 25.128906 L 249.890625 24.929688 C 250.746094 24.285156 251.640625 23.707031 252.582031 23.195312 C 253.03125 22.953125 253.484375 22.730469 253.945312 22.527344 C 254.027344 22.527344 254.300781 22.386719 254.351562 22.359375 L 255.175781 22.0625 C 256.175781 21.734375 257.191406 21.480469 258.226562 21.304688 L 258.753906 21.230469 C 258.984375 21.195312 259.214844 21.171875 259.449219 21.15625 C 259.96875 21.105469 260.496094 21.082031 261.027344 21.070312 C 265.179688 20.992188 269.089844 21.929688 272.757812 23.878906 C 273.585938 24.328125 274.382812 24.824219 275.152344 25.367188 L 275.613281 25.714844 L 275.871094 25.929688 C 276.246094 26.238281 276.601562 26.550781 276.9375 26.871094 C 277.550781 27.457031 278.121094 28.078125 278.652344 28.738281 C 278.71875 28.820312 278.785156 28.894531 278.84375 28.976562 C 278.953125 29.132812 279.074219 29.28125 279.183594 29.433594 C 279.445312 29.8125 279.703125 30.199219 279.941406 30.589844 C 280.402344 31.332031 280.820312 32.101562 281.191406 32.894531 C 281.28125 33.089844 281.363281 33.296875 281.460938 33.496094 C 281.492188 33.5625 281.519531 33.625 281.546875 33.695312 C 281.726562 34.132812 281.890625 34.578125 282.039062 35.023438 C 282.628906 36.773438 283.070312 38.5625 283.363281 40.386719 C 283.363281 40.59375 283.421875 40.796875 283.453125 41.003906 C 283.453125 41.078125 283.453125 41.152344 283.453125 41.226562 C 283.457031 41.273438 283.457031 41.316406 283.453125 41.359375 C 283.511719 41.839844 283.570312 42.320312 283.609375 42.804688 C 283.710938 43.871094 283.765625 44.953125 283.808594 46.027344 C 283.898438 48.421875 283.898438 50.820312 283.808594 53.207031 C 283.621094 57.894531 283.054688 62.539062 282.105469 67.132812 C 281.144531 71.839844 279.847656 76.453125 278.214844 80.96875 C 276.632812 85.371094 274.742188 89.632812 272.542969 93.757812 C 270.402344 97.804688 268.238281 101.851562 266.105469 105.910156 C 261.554688 114.597656 256.910156 123.257812 251.617188 131.515625 C 250.855469 132.707031 250.070312 133.898438 249.277344 135.070312 C 243.753906 125.984375 237.945312 117.085938 232.285156 108.089844 C 229.726562 104.007812 227.214844 99.894531 224.851562 95.699219 C 223.753906 93.714844 222.6875 91.699219 221.679688 89.660156 C 221.195312 88.679688 220.722656 87.6875 220.265625 86.6875 L 219.671875 85.347656 L 219.351562 84.605469 L 219.285156 84.457031 C 219.285156 84.40625 219.128906 84.078125 219.109375 84.035156 C 217.472656 80.058594 216.15625 75.976562 215.171875 71.792969 C 214.660156 69.644531 214.238281 67.464844 213.914062 65.273438 L 213.816406 64.582031 C 213.816406 64.582031 213.757812 64.136719 213.742188 64.035156 C 213.667969 63.433594 213.601562 62.828125 213.535156 62.226562 C 213.417969 61.0625 213.320312 59.890625 213.253906 58.707031 C 213.085938 56.308594 213.085938 53.910156 213.253906 51.511719 C 213.253906 50.949219 213.351562 50.398438 213.417969 49.859375 C 213.417969 49.753906 213.492188 49.355469 213.417969 49.777344 L 213.46875 49.421875 C 213.519531 49.074219 213.578125 48.730469 213.640625 48.375 C 213.847656 47.207031 214.105469 46.058594 214.417969 44.921875 C 214.734375 43.78125 215.089844 42.648438 215.492188 41.542969 C 215.691406 40.980469 215.914062 40.433594 216.136719 39.890625 C 216.160156 39.847656 216.179688 39.804688 216.195312 39.757812 C 216.234375 39.675781 216.269531 39.585938 216.308594 39.5 C 216.441406 39.195312 216.574219 38.90625 216.714844 38.609375 C 217.726562 36.453125 218.902344 34.394531 220.242188 32.429688 C 220.582031 31.941406 220.921875 31.457031 221.273438 30.976562 L 221.488281 30.695312 L 221.671875 30.457031 C 221.738281 30.375 221.835938 30.242188 221.835938 30.25 L 222.167969 29.835938 C 222.921875 28.910156 223.707031 28.019531 224.523438 27.160156 C 225.347656 26.332031 226.171875 25.507812 227.082031 24.683594 C 227.519531 24.285156 227.976562 23.90625 228.429688 23.523438 L 229.058594 23.019531 L 229.296875 22.832031 L 229.5625 22.625 C 231.457031 21.199219 233.464844 19.945312 235.574219 18.859375 C 236.09375 18.59375 236.632812 18.328125 237.167969 18.082031 L 237.996094 17.726562 L 238.09375 17.726562 L 238.5 17.5625 C 239.597656 17.113281 240.722656 16.734375 241.851562 16.386719 C 242.984375 16.042969 244.148438 15.769531 245.3125 15.5625 C 245.570312 15.488281 245.804688 15.371094 246.011719 15.207031 C 246.222656 15.042969 246.394531 14.84375 246.523438 14.609375 C 246.65625 14.378906 246.734375 14.128906 246.769531 13.867188 C 246.800781 13.601562 246.78125 13.339844 246.710938 13.082031 C 246.632812 12.828125 246.511719 12.597656 246.347656 12.390625 C 246.183594 12.183594 245.984375 12.015625 245.753906 11.886719 C 245.519531 11.753906 245.273438 11.671875 245.011719 11.640625 C 244.75 11.605469 244.488281 11.621094 244.230469 11.6875 C 241.808594 12.207031 239.445312 12.925781 237.148438 13.84375 C 234.847656 14.765625 232.640625 15.875 230.53125 17.171875 C 228.417969 18.46875 226.433594 19.9375 224.574219 21.574219 C 222.714844 23.210938 221.003906 24.992188 219.449219 26.921875 C 213.105469 34.660156 209.148438 44.382812 209.105469 54.460938 C 209.109375 63.855469 210.734375 72.964844 213.980469 81.78125 C 217.203125 90.402344 221.789062 98.582031 226.660156 106.488281 Z M 262.453125 48.945312 Z M 262.453125 48.945312 " fill-opacity="1" fill-rule="nonzero"/></g></svg>